<svg width="100" height="100" viewBox="0 0 100 100" fill="none" xmlns="http://www.w3.org/2000/svg">
<g filter="url(#filter0_d_22_20)">
<path d="M23.1963 50.7852C22.4039 47.1798 22.1051 39.4613 29.3184 29.1011C34.1147 23.0903 37.563 20.7601 48.3101 19.1537L51.6444 16.9725L51.6444 14.2726L48.3101 12.44L48.0664 12.4471C41.1804 12.6467 38.1581 12.7343 31.1619 15.5951L24.3565 12.44L19.3399 16.9725L22.769 24.4413C21.4312 26.0441 19.637 29.1685 18.9071 30.5304L10.4954 30.7065L8.47783 37.0538L15.2168 41.8368C14.5823 43.6817 14.561 47.7256 14.6297 49.5169L7.75169 52.9739L9.37095 60.3413C11.9507 60.4953 17.2344 60.7764 17.7308 60.6691C17.896 62.6037 19.8675 65.9542 20.8326 67.3877L16.7464 74.6746L21.3135 79.9271L29.0016 76.4592C30.6562 78.072 33.862 79.8421 35.2581 80.5256L34.8606 88.3289L41.7033 90.6265L46.048 83.7763C47.8129 84.7084 51.8395 84.4949 53.6322 84.2716L57.3371 91.5167L64.6286 89.9407L64.8021 81.8574C68.0704 80.7569 70.416 79.0568 71.1802 78.3443L78.4709 82.6797L83.884 77.7331L80.1446 70.3313L84.1961 64.3654L92.0561 64.637L94.6253 57.8421L87.8519 52.9023L88.0596 46.4536L85.6125 42.7133L82.6822 42.6898L79.872 46.9096C80.2701 59.9596 72.1066 68.511 67.9752 71.1554C64.0677 74.0798 53.4261 78.8976 42.1192 74.7734C27.1445 69.3403 24.6433 57.3688 23.1963 50.7852Z" fill="#006384"/>
</g>
<path d="M78.637 43.5593H61.3301C62.8543 46.8343 62.2827 49.7525 61.6476 50.8022H71.3332C68.9197 59.7457 62.3886 64.3959 59.4247 65.603C55.1377 67.1776 44.8488 68.6262 37.9895 61.8241C27.7006 50.7392 33.1712 39.9378 35.9254 35.2141C38.6795 30.4904 49.4216 19.9409 49.4216 19.9409C46.8811 19.9409 36.6392 22.9326 32.9085 27.1839C18.4279 43.6852 25.4459 58.9899 30.6856 64.6583C34.6551 69.5394 46.2143 78.0105 60.6949 72.846C77.7161 66.4218 79.7485 50.6448 78.637 43.5593Z" fill="#FFC000"/>
<path fill-rule="evenodd" clip-rule="evenodd" d="M41.6686 22.115C38.3281 23.3929 34.8667 25.1924 33.0284 27.2872C25.815 35.5072 23.9649 43.4168 24.5602 49.9693C25.1561 56.5281 28.2034 61.7398 30.8028 64.5519L30.8062 64.5556L30.8093 64.5594C34.7556 69.412 46.2484 77.8302 60.6398 72.6983C77.4573 66.3503 79.5592 50.8232 78.5006 43.7167H61.5754C62.2685 45.2949 62.4883 46.7846 62.4574 48.0191C62.4294 49.1409 62.1941 50.0597 61.9122 50.6447H71.5401L71.4866 50.8429C69.0584 59.8411 62.4873 64.5259 59.4851 65.7487L59.4825 65.7497L59.4799 65.7507C57.3171 66.5451 53.6503 67.3049 49.66 67.0118C45.6679 66.7186 41.3409 65.3702 37.8773 61.9354L37.875 61.9331L37.8727 61.9307C32.6972 56.3548 31.4785 50.8391 31.9082 46.1195C32.3373 41.4076 34.4082 37.5018 35.788 35.1353C37.1757 32.7552 40.5631 28.9237 43.5901 25.6988C45.1062 24.0837 46.536 22.6164 47.5868 21.5529C48.1122 21.0211 48.5429 20.5903 48.8423 20.2923C48.9069 20.228 48.9654 20.1699 49.0174 20.1183C48.3767 20.1742 47.4446 20.3472 46.3335 20.6274C44.964 20.9727 43.335 21.4776 41.6686 22.115ZM49.4217 19.9409L49.5334 20.0528L49.8077 19.7834H49.4217C48.7655 19.7834 47.6328 19.9748 46.2553 20.3222C44.8733 20.6706 43.2323 21.1794 41.5544 21.8212C38.2061 23.102 34.6813 24.924 32.7889 27.0805C25.5216 35.3618 23.6404 43.3553 24.2439 49.9975C24.8465 56.6307 27.9257 61.9038 30.5653 64.761C34.5608 69.6711 46.1834 78.1889 60.7488 72.9941L60.7515 72.9931C77.8693 66.5325 79.912 50.662 78.794 43.535L78.7731 43.4018H61.082L61.186 43.6252C61.9373 45.2395 62.1712 46.7637 62.14 48.0113C62.1087 49.263 61.8111 50.2262 61.5116 50.7212L61.3673 50.9597H71.1255C68.6853 59.7163 62.272 64.272 59.3671 65.4563C57.2425 66.2361 53.6227 66.9871 49.6835 66.6978C45.7455 66.4085 41.4995 65.0807 38.1042 61.7151C32.9927 56.2069 31.8027 50.7804 32.2245 46.1478C32.6471 41.5068 34.6886 37.6501 36.0629 35.2929C37.4293 32.9493 40.79 29.1442 43.8226 25.9134C45.3363 24.3007 46.7642 22.8354 47.8136 21.7733C48.3383 21.2422 48.7684 20.812 49.0672 20.5146C49.2166 20.3659 49.3332 20.2504 49.4125 20.1721C49.4521 20.1329 49.4823 20.1031 49.5027 20.083L49.5329 20.0532L49.5334 20.0528C49.5335 20.0527 49.5334 20.0528 49.4217 19.9409Z" fill="black"/>
<path d="M74.0882 31.8849C70.4757 26.4107 64.3254 22.9932 61.6103 22.1183L55.9318 28.1286C63.712 29.2308 68.6095 35.6564 68.9517 36.9461L74.0882 31.8849Z" fill="#FFC000"/>
<path fill-rule="evenodd" clip-rule="evenodd" d="M61.5633 21.9377L61.6592 21.9686C64.4014 22.8523 70.5848 26.2886 74.2209 31.7987L74.2918 31.9062L68.8681 37.2504L68.798 36.9862C68.7611 36.8471 68.6566 36.621 68.4767 36.323C68.2988 36.0283 68.0529 35.6725 67.7416 35.276C67.1192 34.4832 66.2391 33.5323 65.1275 32.5866C62.9034 30.6945 59.7611 28.8302 55.9092 28.2845L55.6072 28.2417L61.5633 21.9377ZM61.6566 22.2995L56.2537 28.018C60.0451 28.6263 63.1365 30.4778 65.3342 32.3475C66.4623 33.3072 67.357 34.2734 67.9922 35.0826C68.3098 35.4871 68.5634 35.8535 68.7492 36.1613C68.8617 36.3477 68.9516 36.5163 69.0156 36.6611L73.884 31.8641C70.3283 26.5513 64.3734 23.2079 61.6566 22.2995Z" fill="#1E1E1E"/>
<path fill-rule="evenodd" clip-rule="evenodd" d="M51.6448 57.7302C57.4959 57.7302 62.1242 53.0854 62.1242 47.4956C62.1242 41.9058 57.4959 37.261 51.6448 37.261C45.7937 37.261 41.1654 41.9058 41.1654 47.4956C41.1654 53.0854 45.7937 57.7302 51.6448 57.7302ZM51.6448 65.2881C61.6416 65.2881 69.7456 57.3221 69.7456 47.4956C69.7456 37.6691 61.6416 29.7031 51.6448 29.7031C41.648 29.7031 33.5439 37.6691 33.5439 47.4956C33.5439 57.3221 41.648 65.2881 51.6448 65.2881Z" fill="#004666"/>
<path d="M38.0576 35.7391L54.5488 15.9807C59.8215 15.9291 62.1541 17.8638 62.6613 18.8376L47.9947 35.7948L38.0576 35.7391Z" fill="#004666"/>
<defs>
<filter id="filter0_d_22_20" x="3.75146" y="12.44" width="94.874" height="87.0767" filterUnits="userSpaceOnUse" color-interpolation-filters="sRGB">
<feFlood flood-opacity="0" result="BackgroundImageFix"/>
<feColorMatrix in="SourceAlpha" type="matrix" values="0 0 0 0 0 0 0 0 0 0 0 0 0 0 0 0 0 0 127 0" result="hardAlpha"/>
<feOffset dy="4"/>
<feGaussianBlur stdDeviation="2"/>
<feComposite in2="hardAlpha" operator="out"/>
<feColorMatrix type="matrix" values="0 0 0 0 0 0 0 0 0 0 0 0 0 0 0 0 0 0 0.25 0"/>
<feBlend mode="normal" in2="BackgroundImageFix" result="effect1_dropShadow_22_20"/>
<feBlend mode="normal" in="SourceGraphic" in2="effect1_dropShadow_22_20" result="shape"/>
</filter>
</defs>
</svg>
